<svg id="Layer_1" data-name="Layer 1" xmlns="http://www.w3.org/2000/svg" xmlns:xlink="http://www.w3.org/1999/xlink" viewBox="0 0 400 300"><defs><linearGradient id="linear-gradient" x1="169.9" y1="252.14" x2="218.14" y2="203.89" gradientUnits="userSpaceOnUse"><stop offset="0" stop-opacity="0"/><stop offset="1" stop-color="#f15a24"/></linearGradient><linearGradient id="linear-gradient-2" x1="105.65" y1="241.69" x2="153.89" y2="193.45" xlink:href="#linear-gradient"/></defs><title>1</title><path d="M290.06,203.61c-8.63-6.23-18.34-10.89-27.9-15.52-18.94-9.18-38.33-17.65-55.63-29.75L102.89,217.1a4.91,4.91,0,0,0,0,8.54c17.61,10,60.19,35.15,77.31,45.31a14.43,14.43,0,0,0,14.65,0l104-60.81C295.92,208,293,205.75,290.06,203.61Z" fill="#ba2f2f"/><polyline points="191.72 225.05 152.31 246.39 169.24 258 211.84 233.53" fill="url(#linear-gradient)"/><path d="M113.46,230.94c2.41,1.44,5.07,2.8,7.49,4.42l24.72-14.2-20.13-8.48-22.59,12.24C106.44,226.93,110,228.87,113.46,230.94Z" fill="url(#linear-gradient-2)"/><path d="M180.54,49s4.88-3.07,6.54-2.89,0,4.11,0,4.11" fill="#8eb70f"/><path d="M182.31,51.22c.06,22.61,0,81.39-.07,95.17a5.08,5.08,0,0,0,2.52,4.4L301,218.69a5.09,5.09,0,0,0,7.66-4.4V118.91a5.09,5.09,0,0,0-2.53-4.4L190,46.81A5.09,5.09,0,0,0,182.31,51.22Z" fill="#68e1fd"/><path d="M182.31,51.22c.06,22.61,0,81.39-.07,95.17a5.08,5.08,0,0,0,2.52,4.4L301,218.69a5.09,5.09,0,0,0,7.66-4.4V118.91a5.09,5.09,0,0,0-2.53-4.4L190,46.81A5.09,5.09,0,0,0,182.31,51.22Z" opacity="0.61"/><path d="M178.46,53.12c.06,22.61,0,81.39-.07,95.17a5.08,5.08,0,0,0,2.52,4.4l116.23,67.9a5.09,5.09,0,0,0,7.66-4.4V120.81a5.09,5.09,0,0,0-2.53-4.4L186.12,48.71A5.09,5.09,0,0,0,178.46,53.12Z" fill="#68e1fd"/><ellipse cx="235.79" cy="135.78" rx="11.72" ry="16.44" transform="translate(-31.3 83.85) rotate(-18.93)" fill="none" stroke="#42210b" stroke-miterlimit="10"/><path d="M266.58,126.36l-3.5-1.52c-.58-.25-1.09.61-.5.86l1,.45c-5.24.45-10.39,1.44-15,4.12a.5.5,0,0,0,.5.86c4.78-2.77,10.13-3.69,15.57-4.08a.48.48,0,0,0,.41-.27l.13.06a18.33,18.33,0,0,0-2.57,1.77c-.49.41.22,1.12.71.71a17,17,0,0,1,3.21-2.11A.5.5,0,0,0,266.58,126.36Z" fill="#42210b"/><path d="M215.42,98.3a6.59,6.59,0,0,1,1.07.25c.61.2.88-.77.27-1a7.2,7.2,0,0,0-3.11-.31c-.28,0-.62.3-.48.63l1.39,3.46c.24.59,1.2.33,1-.27l-.81-2a19,19,0,0,1,12.1,18.53c0,.64,1,.64,1,0A19.94,19.94,0,0,0,215.42,98.3Z" fill="#42210b"/><path d="M221.6,140.88l-7.24,4.1a5.34,5.34,0,0,1,.63-1c.41-.49-.3-1.2-.71-.71a6.56,6.56,0,0,0-1.45,3.08.51.51,0,0,0,.35.62,8.46,8.46,0,0,0,2.7.2c.64-.06.64-1.06,0-1a7.77,7.77,0,0,1-1.58,0l7.81-4.42A.5.5,0,0,0,221.6,140.88Z" fill="#42210b"/><path d="M255.08,162.4l-1.23-3.57c-.21-.6-1.18-.34-1,.27l.89,2.57c-4.18-1.49-6.38-5.42-7.54-9.52a.5.5,0,0,0-1,.27c1.12,4,3.19,7.71,6.82,9.61a11.31,11.31,0,0,1-1.55-.28.5.5,0,0,0-.27,1,12.16,12.16,0,0,0,4.33.33A.51.51,0,0,0,255.08,162.4Z" fill="#42210b"/><path d="M271.46,116.76s-.33,14.06,0,14.06,14,7.8,14,7.8v-13.9Z" fill="none" stroke="#42210b" stroke-miterlimit="10"/><path d="M258.44,158.54s-.33,14.06,0,14.06,14,7.8,14,7.8V166.5Z" fill="none" stroke="#42210b" stroke-miterlimit="10"/><path d="M278.55,155.53s-.33,14.06,0,14.06,14,7.8,14,7.8V163.5Z" fill="none" stroke="#42210b" stroke-miterlimit="10"/><path d="M188.45,70.33s-.33,14.06,0,14.06,14,7.8,14,7.8V78.29Z" fill="none" stroke="#42210b" stroke-miterlimit="10"/><path d="M195.54,94.64s-.33,14.06,0,14.06,14,7.8,14,7.8V102.6Z" fill="none" stroke="#42210b" stroke-miterlimit="10"/><path d="M196.18,131.18s-.33,14.06,0,14.06,14,7.8,14,7.8v-13.9Z" fill="none" stroke="#42210b" stroke-miterlimit="10"/><polygon points="229.86 92.61 229.81 106.78 260.05 123.86 260.05 110.04 229.86 92.61" fill="none" stroke="#42210b" stroke-miterlimit="10"/><path d="M189.79,130.6a27.4,27.4,0,0,0-8,11.69C179,150,186,162.68,186,162.68l10.9-8.61" fill="#ff8f6f"/><path d="M188.59,232.91l-3-1.64.75-4.22s4.4.41,4.79,2" fill="#003b94"/><path d="M189.71,232.84c.67-.41,1.36-.77,2-1.14,1.71-.93,4.18-1.9,5.23-3.66a2,2,0,0,0-.14-2.3c-1.56-1.87-4.94,1.21-6.67-.87-.34-.41-.5-6.92-.5-6.92l-6.59,1.78s-1.12,13.08-1,13.89,2.39,1.58,2.39,1.58a5.84,5.84,0,0,0,1.9-.74c.69-.5.07-6.64.94-5.78s1.27,4.22,1.27,4.22A4.53,4.53,0,0,0,189.71,232.84Z" fill="#68e1fd"/><path d="M201.21,239.23l-3-1.64.75-4.22s4.4.41,4.79,2" fill="#003b94"/><path d="M202.32,239.16c.67-.41,1.36-.77,2-1.14,1.71-.93,4.18-1.9,5.23-3.66a2,2,0,0,0-.14-2.3c-1.56-1.87-4.94,1.21-6.67-.87-.34-.41-.5-6.92-.5-6.92l-6.59,1.78s-1.12,13.08-1,13.89,2.39,1.58,2.39,1.58a5.84,5.84,0,0,0,1.9-.74c.69-.5.07-6.64.94-5.78s1.27,4.22,1.27,4.22A4.53,4.53,0,0,0,202.32,239.16Z" fill="#68e1fd"/><path d="M179.73,196.71l-1.91,26s3.09,4.27,13.47,1.89h0l.1-17.51" fill="#ffb000"/><path d="M191.75,201.86c-.22,2.24,0,26.91,0,26.91s2.87,5.37,15.37,0l-.18-21" fill="#ffb000"/><path d="M178.76,209.8c.85.58,1.15-6.95,2-6.43A50.63,50.63,0,0,0,191,207.9l.08,0a.7.7,0,0,1,.95.35,54.13,54.13,0,0,0,6.72,1.52c2.92.47,5.33-1.69,8.32-1.85,0-11.47.06-44.14-4.83-51L187.85,152c-.07,1.19-7,9.24-6.84,19,.19,11.05-1.25,21.49-1.49,24.94C179.47,196.63,178.79,209.17,178.76,209.8Z" fill="#ffb000"/><path d="M203.62,143.69l-1.33,13.16s-10.78.44-15.43-2.77V142.92" fill="#ff8f6f"/><path d="M218.59,135.64l-1.1,1.5a36.11,36.11,0,0,0,1.55-3.75c.31-.88-1.09-1.22-1.4-.35l-.16.45q.2-.7.38-1.4a.72.72,0,0,0-1.4-.35,37.51,37.51,0,0,1-1.09,3.59,25.64,25.64,0,0,0,.51-3.18c.09-.92-1.35-.88-1.44,0a22.85,22.85,0,0,1-.65,3.6q0-.62-.11-1.23a.73.73,0,0,0-.3-.52c0-.16-.09-.32-.14-.48a.72.72,0,0,0-1.41.22l-.09,5.44a6.48,6.48,0,0,1-1,1.55,25.15,25.15,0,0,1,2,1.57,20.73,20.73,0,0,1,1.64,1.57q.69-.86,1.34-1.76a.78.78,0,0,0,.14-.15q1.94-2.86,4-5.63C220.39,135.61,219.13,134.91,218.59,135.64Z" fill="#ffb5a9"/><path d="M196.78,131.69s5.09,1.37,7.15,4.67a58.22,58.22,0,0,1,3.41,7l3.76-5.84s4.56,1.4,6.38,3.65c0,0-5.42,11.84-10.14,12.85s-9.72-7-9.72-7-1,3.33-.83-.22" fill="#ff8f6f"/><path d="M184.17,146.64c2.88,2.54,9.76,2.42,13.45.41C198,145.74,199,129.3,199,127.9c.06-2-.17-4.05-.31-6.07a.58.58,0,0,1,0-.26c-.68-2.28-2.07-4.21-4.82-4.45-7.11-.61-7.51,7.27-7.46,10.47C186.47,129.44,184.52,145.44,184.17,146.64Z" fill="#007f68"/><path d="M191.91,167.53a.5.5,0,0,0-1,0q.31,29.18-.57,58.36c0,.64,1,.64,1,0Q192.23,196.72,191.91,167.53Z" fill="#ba2f2f"/><path d="M117.92,190.4v28.86s27.74,1.54,27.74,0V190.4" fill="#68e1fd"/><ellipse cx="131.79" cy="219.01" rx="13.87" ry="6.34" fill="#68e1fd"/><ellipse cx="131.79" cy="190.4" rx="13.87" ry="6.34" fill="#3129a3"/><path d="M123.15,195.32l.1.05c.53.19,1.07.35,1.62.49l-3.77-31.61a1.89,1.89,0,0,0-1.93.36L123,195.26Z" fill="#f78b72"/><path d="M127.46,196.3l1.18-29.67a1.9,1.9,0,0,0-2,0l-1,29.37A15.55,15.55,0,0,0,127.46,196.3Z" fill="#f78b72"/><path d="M131.79,196.73l3.81-30.93,7.72,4.08-3.12,26A23.6,23.6,0,0,1,131.79,196.73Z" fill="#fcb749"/></svg>