<svg xmlns="http://www.w3.org/2000/svg" xmlns:xlink="http://www.w3.org/1999/xlink" viewBox="0 0 400 300"><defs><linearGradient id="linear-gradient" x1="224.87" y1="108.14" x2="190.75" y2="140.58" gradientUnits="userSpaceOnUse"><stop offset="0" stop-color="#88a80d"/><stop offset="1" stop-color="#fff"/></linearGradient><linearGradient id="linear-gradient-2" x1="318.19" y1="154.03" x2="284.07" y2="186.47" xlink:href="#linear-gradient"/><linearGradient id="linear-gradient-3" x1="137.89" y1="205.18" x2="110.68" y2="231.05" xlink:href="#linear-gradient"/><linearGradient id="linear-gradient-4" x1="274.67" y1="134.52" x2="240.55" y2="166.96" xlink:href="#linear-gradient"/></defs><title>101-110</title><g style="isolation:isolate"><g id="Layer_2" data-name="Layer 2"><path d="M350,159.2,223.85,85.85a6,6,0,0,0-6,0l-188.63,108a6,6,0,0,0,0,10.34l120.63,69.64a19.47,19.47,0,0,0,19.47,0L350,169.52A6,6,0,0,0,350,159.2Z" fill="#859910"/><path d="M186.79,156.82l50.07-28.91-34.48-10.09-46.83,25.07C161.59,147,180.84,152.54,186.79,156.82Z" fill="url(#linear-gradient)" style="mix-blend-mode:multiply"/><path d="M280.11,202.71l50.07-28.91L295.7,163.7l-46.83,25.07C254.91,192.91,274.16,198.42,280.11,202.71Z" fill="url(#linear-gradient-2)" style="mix-blend-mode:multiply"/><path d="M105,246l42.74-24.68-16-10.59L82.28,232.54C88.33,236.68,99.09,241.69,105,246Z" fill="url(#linear-gradient-3)" style="mix-blend-mode:multiply"/><path d="M236.59,183.2l50.07-28.91L252.18,144.2l-46.83,25.07C211.39,173.41,230.65,178.92,236.59,183.2Z" fill="url(#linear-gradient-4)" style="mix-blend-mode:multiply"/><path d="M163,99.88c-.25-.23-4.4,2.26-5.07,3.43s-5.3,2.35-5.3,2.35l1.65,5.79s3.49-2.19,4.49-2.18,3.84.9,5.16,0,3.57-4.69,3-6.87S163,99.88,163,99.88Z" fill="#ff945f"/><path d="M101.52,221v-9.8l7,.82L108,223.06S101.52,226.29,101.52,221Z" fill="#ff945f"/><path d="M129,198.8s2.3,11.55,2.77,11.9,6.31,1.09,6-.35-1.1-13-1.1-13" fill="#ff945f"/><path d="M145.31,213.24c-2.06-.79-6.41-3.67-7.54-5.72-3,1.17-4.6,1.65-7.46.56-.1,2.28-.28,5.58,1.43,6.21,2.77,1,15.39,10.54,16.65,5C149,216.58,148.4,214.41,145.31,213.24Z" fill="#08679b"/><path d="M125.7,135.89s13.73,54.18,12,67.38c-.21,1.57-8.12,2.14-14,0,0,0-10.88-58.67-10.1-65.54" fill="#68e1fd"/><path d="M108.56,140.08s-3.83,43-5.7,48.41c-1.54,4.48-4.26,21.72-5.17,27.68a13.07,13.07,0,0,0,11.54,1.41c2.26-8,7.63-27.14,9-31.61,1.71-5.7,4.68-36,4.68-36Z" fill="#68e1fd"/><path d="M127.78,142.3c.54-9.55,1.17-28.55-2.24-29.38-4.57-1.11-17.34,4.51-20.2,8.37-2,2.72.75,16.37,2.57,24.22C114.27,147.12,122.38,146.12,127.78,142.3Z" fill="#b3b3b3"/><path d="M120.49,109.2a8.46,8.46,0,0,0,3.15-5.08c.61-3.32-2.85-4.91-4.7-4.91,0,0,1.07.76,1.19,1.21,0,0-1.39-1.91-5.07-1.22s-.37,1.33-.37,1.33-3.7-.57-5.76,0-3.09,1.54-2.77,1.89,1.15.05,1.48.29-1.91,1.53-2,2.49,1.6,1.6,1.48,1.82-1.95-.64-2-.29,3.34,7.89,9.09,7.62" fill="#a0421d"/><path d="M121.11,105.77a.41.41,0,0,0-.15-.1.41.41,0,0,0-.18,0,14.91,14.91,0,0,1-3.26.36c-1.09-.07-2.16-.3-3.24-.36-.46,0-.88.64-1.18,1.66a48.5,48.5,0,0,0-.28,5.24,5,5,0,0,0,3.63,4.06c1.92.48,3.21-.54,3.9-2.15a17.24,17.24,0,0,0,1.21-6.71l0-1.12A1.16,1.16,0,0,0,121.11,105.77Z" fill="#ffb288"/><path d="M120.59,104.83s-1.2,9.11-7.42,9.5c-3.07.19-4.24-7.42-4.24-7.42s4.81-4.65,8-4.65A3.41,3.41,0,0,1,120.59,104.83Z" fill="#a0421d"/><path d="M118.83,110.78c-.08-.44,1-2.23-1.63-1.25s-1.58,3.33,0,3.8" fill="#ffb288"/><path d="M108.27,118.72s-16.6,7.69-14.42,13.74,21.35,2.81,26.74,0c0,0-.87-8-1.79-8.37" fill="#b3b3b3"/><path d="M123.54,112.8s29.35-10,30.57-8.29c0,0,2.52,4.85.88,8.26,0,0-26.71,13.56-31.44,12.43" fill="#b3b3b3"/><path d="M101.56,221.12s-.4,10.39,1.36,13.36,9.89,1.41,9.71-1.36-3.2-6.61-3.46-9.59-1.25-2.41-1.25-2.41S106.05,225,101.56,221.12Z" fill="#08679b"/><polyline points="141.62 71 123.54 122.43 142.27 163.08" fill="none" stroke="#42210b" stroke-miterlimit="10"/><path d="M142.62,65.08c-.84,3-1.7,6.6,0,9.45,2.24,3.79,8.19,4.81,11.41,7.71,9.85,8.85,11.81,20.08,8.12,32.45-2.9,9.74-8.32,18.1-13.8,26.53-5.29,8.14-7.76,16-6.57,25.76.12.95,1.62,1,1.5,0-1.36-11.18,2.53-19.23,8.53-28.27,5.14-7.74,9.74-16,12.18-25,2.12-7.83,2.5-16.6-1.65-23.85A35,35,0,0,0,152.41,79c-1.82-1.26-4-1.77-5.84-2.92-4.32-2.64-3.66-6.51-2.51-10.55a.75.75,0,0,0-1.45-.4Z" fill="#42210b"/><polygon points="122 122.54 177.23 96.11 182.64 93.54 177.68 97.18 122 123.6 122 122.54" fill="#0f2741"/><path d="M115.1,125.24s1.3-2.44,2.36-2.83,6.56-1.07,7.2,0a.85.85,0,0,1-.52,1.37s.18,4.75-1.65,5.38-6.3.51-6.3.51l-3.29,1.55-2.13-4Z" fill="#ffb288"/><path d="M165.23,99.86c-.53,0-3.27.75-2.92,1.58a1.64,1.64,0,0,0,1.45.83s-1.85.76-1.48,1.59a2,2,0,0,0,1.45,1s-2.15,1-1.42,1.64l.73.63s-.91,1-.15,1.59,3.19.38,3.49-.76a3.89,3.89,0,0,0,0-2s1.19-.75.78-1.47l-.41-.73s1.21-1.14.49-1.59l-.72-.46s.83-1.19.38-1.81S165.23,99.86,165.23,99.86Z" fill="#ffb288"/><path d="M110.78,127.19s-4,1.63-7.16,1.19S110.78,127.19,110.78,127.19Z" fill="#7c7c7c"/><path d="M105.9,135.89l2,9.62,5.67-11.42S111.17,136,105.9,135.89Z" fill="#7c7c7c"/><path d="M292.14,141.62c5.64,6.43-.23,11.42.13,21.56a7.8,7.8,0,0,0,.47,2.42,39.2,39.2,0,0,0,17.83,7.58c.16-7.81,13.66-13.64,13.1-22.75-.59-9.48-13.37-4.33-8.7-14.87s3-24-4.46-28.9C305,103,298.68,94.88,295.79,90.92c0,1.13,0,2.26,0,3.39.57,6.18-2,13-5.18,17.89-2.94,4.54-7.22,8.33-9.53,13.26a14.65,14.65,0,0,0-.63,1.58C278.25,135.46,287.28,136.07,292.14,141.62Z" fill="#cec300"/><path d="M298.16,122.73c1.18,5.42,5.28,9.5,7.37,14.53,2.57,6.2-.19,12-1.25,18.19-1.12,6.5,1.4,12,4.6,17.39l1.25.25a42.67,42.67,0,0,1-4.27-8.43,18.73,18.73,0,0,1-.46-10c1.13-5.52,3.37-11,1.44-16.57-1.78-5.19-5.91-9.22-7.49-14.49-1.91-6.37,1.76-12.73.51-19.15-.63-3.23-2.34-6.12-3.94-8.95l-.17-.31q0,.84-.12,1.67a27.85,27.85,0,0,1,3.19,7.21C300.32,110.27,296.8,116.47,298.16,122.73Z" fill="#2e6300"/><path d="M351.33,128.32c6-2.48,11.93-11.08,7.59-16.23s-3.25-12.75-3.25-12.75a9.78,9.78,0,0,1-5.15,5.3c-12.2,4.21-13.29,11.24-13.56,16.67s6.24,17.08-13.28,23.32c-18.15,5.8-5.37,26.6-3.49,29.48a82.32,82.32,0,0,0,11.78-.6,104.76,104.76,0,0,1,13.12-5.83c11.66-4.34,7.32-14.64,2.17-20.61S345.37,130.8,351.33,128.32Z" fill="#cfe217"/><path d="M355.3,100.74c-3,4.51-3.65,9.95-5.14,15.06-1.62,5.56-5.2,9.79-8.06,14.7a23.23,23.23,0,0,0-2.87,7.31c-.55,2.82-.59,5.7-.87,8.55a22.17,22.17,0,0,1-2.67,9,53.56,53.56,0,0,1-5.31,7.22c-2.82,3.45-5.71,7.23-6.85,11.53l1,0c1.18-4.2,4.09-7.87,6.86-11.24,3.35-4.09,6.57-8.26,7.53-13.59,1.06-5.88.48-11.75,3.39-17.19,2.45-4.58,6-8.5,7.89-13.38,2.23-5.76,2.39-12.24,5.93-17.47C356.46,100.71,355.63,100.24,355.3,100.74Z" fill="#2e6300"/><path d="M318.85,174.07c-2.35-7.55-.39-17.09,4.82-23.64,6-7.49,9.5-14.47,5.43-22.49a32.78,32.78,0,0,1-3.53-15.58c-6,12.2-11.93,16.54-10.61,23.19s-.24,9.62-4.38,19.92c-2.93,7.29,0,14.45,2,18C314.66,173.79,316.75,174,318.85,174.07Z" fill="#9abc0c"/><path d="M315.42,173.83l1.07.09c-2.42-6.92-3.33-14.21.22-21.13,1.85-3.61,4.34-6.86,6.06-10.54,1.85-4,2-7.75,1.52-12.06a39.42,39.42,0,0,1,1.82-16.87c.2-.58-.72-.83-.91-.25a38.62,38.62,0,0,0-2.07,14.45c.13,2.6.63,5.19.52,7.8a17.51,17.51,0,0,1-1.89,6.87c-1.84,3.8-4.46,7.16-6.28,11a23,23,0,0,0-1.95,13A38.13,38.13,0,0,0,315.42,173.83Z" fill="#2e6300"/><path d="M188.24,99.25c5.64,6.43-.23,11.42.13,21.56a8.23,8.23,0,0,0,3.41,6.31c4.66,1.88,10.06,1.94,15.07,2.23,1.63-7.1,13.44-12.76,12.91-21.3-.59-9.48-13.37-4.33-8.7-14.87s3-24-4.46-28.9c-5.53-3.67-11.82-11.78-14.71-15.73,0,1.13,0,2.26,0,3.39.57,6.18-2,13-5.18,17.89-2.94,4.54-7.22,8.33-9.53,13.26a14.62,14.62,0,0,0-.63,1.58C174.35,93.1,183.38,93.7,188.24,99.25Z" fill="#cec300"/><path d="M194.26,80.36c1.18,5.42,5.28,9.5,7.37,14.53,2.57,6.2-.19,12-1.25,18.19-1,6,1,11.13,3.86,16.13l1.11.06a37,37,0,0,1-3.39-7,18.73,18.73,0,0,1-.46-10c1.13-5.52,3.37-11,1.44-16.57-1.78-5.19-5.91-9.22-7.49-14.49-1.91-6.37,1.76-12.73.51-19.15-.63-3.23-2.34-6.12-3.94-8.95l-.17-.31q0,.84-.12,1.67a27.85,27.85,0,0,1,3.19,7.21C196.42,67.91,192.9,74.11,194.26,80.36Z" fill="#2e6300"/><path d="M247.43,85.95c6-2.48,11.93-11.08,7.59-16.23S251.77,57,251.77,57a9.78,9.78,0,0,1-5.15,5.3c-12.2,4.21-13.29,11.24-13.56,16.67S239.3,96,219.78,102.26c-15.76,5-8.2,21.38-4.7,27.49a131.81,131.81,0,0,0,16.47-.62,1.6,1.6,0,0,1,.48,0c2.46-1.16,5.5-2.48,9.17-3.84,11.66-4.34,7.32-14.64,2.17-20.61S241.47,88.43,247.43,85.95Z" fill="#cfe217"/><path d="M251.39,58.37c-3,4.51-3.65,9.95-5.14,15.06-1.62,5.56-5.2,9.79-8.06,14.7a23.23,23.23,0,0,0-2.87,7.31c-.55,2.82-.59,5.7-.87,8.55a22.17,22.17,0,0,1-2.67,9,53.56,53.56,0,0,1-5.31,7.22,37.41,37.41,0,0,0-6.17,9.56l1,0a39,39,0,0,1,6.15-9.27c3.35-4.09,6.57-8.26,7.53-13.59,1.06-5.88.48-11.75,3.39-17.19,2.45-4.58,6-8.5,7.89-13.38,2.23-5.76,2.39-12.24,5.93-17.47C252.55,58.35,251.73,57.87,251.39,58.37Z" fill="#2e6300"/><path d="M208,129.43q3.24.23,6.46.31a27.3,27.3,0,0,1,5.32-21.68c6-7.49,9.5-14.47,5.43-22.49A32.78,32.78,0,0,1,221.67,70c-6,12.2-11.93,16.54-10.61,23.19s-.24,9.62-4.38,19.92c-2.51,6.26-.69,12.42,1.13,16.31Z" fill="#9abc0c"/><path d="M210.93,129.6l1,0c-1.93-6.34-2.38-12.93.85-19.22,1.85-3.61,4.34-6.86,6.06-10.54,1.85-4,2-7.75,1.52-12.06A39.42,39.42,0,0,1,222.21,71c.2-.58-.72-.83-.91-.25a38.62,38.62,0,0,0-2.07,14.45c.13,2.6.63,5.19.52,7.8a17.51,17.51,0,0,1-1.89,6.87c-1.84,3.8-4.46,7.16-6.28,11a23,23,0,0,0-1.95,13A35.44,35.44,0,0,0,210.93,129.6Z" fill="#2e6300"/><polyline points="245.6 146.62 245.6 150.77 289.52 150.77 289.52 146.62" fill="gray"/><ellipse cx="267.56" cy="150.77" rx="21.96" ry="7.13" fill="gray"/><ellipse cx="267.56" cy="146.62" rx="21.96" ry="7.13" fill="#e6e6e6"/><path d="M272.52,143.88c0-.12,0-.23,0-.35V92.6a5,5,0,0,0-5-5h0a5,5,0,0,0-5,5v50.92c0,.13,0,.24,0,.37A14.1,14.1,0,0,0,272.52,143.88Z" fill="#e6e6e6"/><path d="M268.2,87.68v57.07a15,15,0,0,0,4.32-.87c0-.12,0-.23,0-.35V92.6A5,5,0,0,0,268.2,87.68Z" fill="gray"/><path d="M302.33,60c-1.24-19.28-14.06-34.41-29.4-35.61h0l-.37,0h-.17a94.42,94.42,0,0,0-13.34,0l5,.9c-14.16,4-24.09,20.11-22.9,38.65,1.09,17,11.2,30.79,24.1,34.63l-3.7,1.07s9.82.49,13.4-.12l.11,0C291.5,97.88,303.63,80.44,302.33,60Z" fill="#68e1fd"/><path d="M302.33,60c-1.24-19.28-14.06-34.41-29.4-35.61h0l-.37,0h-.17a94.42,94.42,0,0,0-13.34,0l5,.9c-14.16,4-24.09,20.11-22.9,38.65,1.09,17,11.2,30.79,24.1,34.63l-3.7,1.07s9.82.49,13.4-.12l.11,0C291.5,97.88,303.63,80.44,302.33,60Z" opacity="0.44"/><ellipse cx="261.47" cy="62.02" rx="30.64" ry="37.69" transform="translate(-3.43 16.84) rotate(-3.67)" fill="#68e1fd"/><path d="M260.89,92.31h-.37c-6.63-.12-12.77-3.47-17.3-9.43a34.5,34.5,0,0,1-6.62-21.5c.31-16.8,11.52-30.25,25.06-30,6.63.12,12.77,3.47,17.3,9.43a34.5,34.5,0,0,1,6.62,21.5C285.26,78.94,274.22,92.31,260.89,92.31Zm.39-57c-11.16,0-20.41,11.62-20.68,26.09a30.49,30.49,0,0,0,5.8,19c3.77,5,8.81,7.75,14.19,7.85h.3c11.16,0,20.41-11.62,20.68-26.09h0a30.49,30.49,0,0,0-5.8-19c-3.77-5-8.81-7.75-14.19-7.85Z" fill="#68e1fd"/><path d="M261.31,79.2h-.23c-8-.15-14.31-8.25-14.13-18.05a20,20,0,0,1,4.31-12.32,13.29,13.29,0,0,1,10.48-5.19c8,.15,14.31,8.25,14.13,18.05A20,20,0,0,1,271.56,74,13.23,13.23,0,0,1,261.31,79.2Zm.21-31.57a9.32,9.32,0,0,0-7.16,3.73A16,16,0,0,0,251,61.22c-.14,7.6,4.43,13.87,10.2,14a9.28,9.28,0,0,0,7.31-3.73,16,16,0,0,0,3.41-9.86c.14-7.6-4.43-13.87-10.2-14Z" fill="#68e1fd"/><ellipse cx="261.44" cy="61.82" rx="5.55" ry="4.33" transform="matrix(0.02, -1, 1, 0.02, 194.74, 322.05)" fill="#68e1fd"/><g opacity="0.27"><path d="M260.89,92.31h-.37c-6.63-.12-12.77-3.47-17.3-9.43a34.5,34.5,0,0,1-6.62-21.5c.31-16.8,11.52-30.25,25.06-30,6.63.12,12.77,3.47,17.3,9.43a34.5,34.5,0,0,1,6.62,21.5C285.26,78.94,274.22,92.31,260.89,92.31Zm.39-57c-11.16,0-20.41,11.62-20.68,26.09a30.49,30.49,0,0,0,5.8,19c3.77,5,8.81,7.75,14.19,7.85h.3c11.16,0,20.41-11.62,20.68-26.09h0a30.49,30.49,0,0,0-5.8-19c-3.77-5-8.81-7.75-14.19-7.85Z"/><path d="M261.31,79.2h-.23c-8-.15-14.31-8.25-14.13-18.05a20,20,0,0,1,4.31-12.32,13.29,13.29,0,0,1,10.48-5.19c8,.15,14.31,8.25,14.13,18.05A20,20,0,0,1,271.56,74,13.23,13.23,0,0,1,261.31,79.2Zm.21-31.57a9.32,9.32,0,0,0-7.16,3.73A16,16,0,0,0,251,61.22c-.14,7.6,4.43,13.87,10.2,14a9.28,9.28,0,0,0,7.31-3.73,16,16,0,0,0,3.41-9.86c.14-7.6-4.43-13.87-10.2-14Z"/><ellipse cx="261.44" cy="61.82" rx="5.55" ry="4.33" transform="matrix(0.02, -1, 1, 0.02, 194.74, 322.05)"/></g></g></g></svg>